<svg id="レイヤー_1" data-name="レイヤー 1" xmlns="http://www.w3.org/2000/svg" viewBox="0 0 805.85 157.61"><defs><style>.cls-1{fill:none;stroke:#fff;stroke-miterlimit:10;}</style></defs><path class="cls-1" d="M96.3,5.07a74.83,74.83,0,0,0-10.86.8,74.09,74.09,0,0,1,0,146.57,74.83,74.83,0,0,0,10.86.79,74.08,74.08,0,0,0,0-148.16Z"/><path class="cls-1" d="M22.22,79.15A74.09,74.09,0,0,1,85.44,5.87,74.08,74.08,0,1,0,74.58,153.23a74.73,74.73,0,0,0,10.86-.79A74.11,74.11,0,0,1,22.22,79.15Z"/><rect class="cls-1" x="171.29" y="12.95" width="24.18" height="132.4"/><rect class="cls-1" x="284.95" y="12.95" width="24.18" height="132.4"/><path class="cls-1" d="M195.39,13H171.24A207.78,207.78,0,0,0,285,144.82,207.49,207.49,0,0,1,195.39,13Z"/><path class="cls-1" d="M404.89,5.07a74.73,74.73,0,0,0-10.86.8,74.09,74.09,0,0,1,0,146.57A74.08,74.08,0,1,0,404.89,5.07Z"/><path class="cls-1" d="M330.81,79.15A74.08,74.08,0,0,1,394,5.87a75,75,0,0,0-10.87-.8,74.08,74.08,0,0,0,0,148.16,75,75,0,0,0,10.87-.79A74.1,74.1,0,0,1,330.81,79.15Z"/><path class="cls-1" d="M663.56,5a74.73,74.73,0,0,0-10.86.79,74.09,74.09,0,0,1,0,146.57A74.08,74.08,0,1,0,663.56,5Z"/><path class="cls-1" d="M589.48,79.11A74.1,74.1,0,0,1,652.7,5.82,74.83,74.83,0,0,0,641.84,5a74.08,74.08,0,1,0,0,148.15,74.83,74.83,0,0,0,10.86-.79A74.1,74.1,0,0,1,589.48,79.11Z"/><rect class="cls-1" x="500.65" y="5.05" width="26" height="147.51"/><path class="cls-1" d="M550.23,78.8A81.94,81.94,0,0,1,607.82.56c-1,0-1.91-.06-2.87-.06a78.31,78.31,0,0,0,0,156.61c1,0,1.92,0,2.87-.06A82,82,0,0,1,550.23,78.8Z"/><rect class="cls-1" x="779.35" y="41.32" width="26" height="112.45"/><rect class="cls-1" x="779.35" y="6.26" width="26" height="22.85"/><path class="cls-1" d="M737.91,29.11h22.6A78.14,78.14,0,0,0,700,.5c-1,0-1.91,0-2.87.06A81.93,81.93,0,0,1,737.91,29.11Z"/><path class="cls-1" d="M768.76,41.32h-23.1a82,82,0,0,1-48.53,115.73c1,0,1.91.06,2.87.06A78.33,78.33,0,0,0,768.76,41.32Z"/></svg>