<svg id="レイヤー_1" data-name="レイヤー 1" xmlns="http://www.w3.org/2000/svg" viewBox="0 0 170.88 149.16"><defs><style>.cls-1{fill:#2272d3;stroke:#2272d3;}.cls-1,.cls-2{stroke-miterlimit:10;}.cls-2{fill:#e2e2e2;stroke:#e2e2e2;}</style></defs><path class="cls-1" d="M96.3.5a74.83,74.83,0,0,0-10.86.79,74.09,74.09,0,0,1,0,146.57,74.83,74.83,0,0,0,10.86.8A74.08,74.08,0,0,0,96.3.5Z"/><path class="cls-2" d="M22.22,74.58A74.11,74.11,0,0,1,85.44,1.29,74.08,74.08,0,1,0,74.58,148.66a74.73,74.73,0,0,0,10.86-.8A74.09,74.09,0,0,1,22.22,74.58Z"/></svg>