<svg id="レイヤー_1" data-name="レイヤー 1" xmlns="http://www.w3.org/2000/svg" viewBox="0 0 133.23 26.73"><defs><style>.cls-1{fill:none;stroke:#fff;stroke-miterlimit:10;}</style></defs><path class="cls-1" d="M16.24,1.25a13.2,13.2,0,0,0-1.78.13,12.17,12.17,0,0,1,0,24.08,11.75,11.75,0,0,0,1.78.13,12.17,12.17,0,0,0,0-24.34Z"/><path class="cls-1" d="M4.07,13.42a12.18,12.18,0,0,1,10.39-12,12.17,12.17,0,1,0-3.57,24.08,12.32,12.32,0,0,0,3.57,0A12.17,12.17,0,0,1,4.07,13.42Z"/><rect class="cls-1" x="28.56" y="2.55" width="3.97" height="21.75"/><rect class="cls-1" x="47.23" y="2.55" width="3.97" height="21.75"/><path class="cls-1" d="M32.52,2.55h-4A34.13,34.13,0,0,0,47.24,24.21,34.12,34.12,0,0,1,32.52,2.55Z"/><path class="cls-1" d="M66.94,1.25a13.2,13.2,0,0,0-1.78.13,12.17,12.17,0,0,1,0,24.08A12.17,12.17,0,0,0,68.7,1.38,11.49,11.49,0,0,0,66.94,1.25Z"/><path class="cls-1" d="M54.77,13.42a12.17,12.17,0,0,1,10.38-12,13.35,13.35,0,0,0-1.79-.13,12.17,12.17,0,0,0,0,24.34,11.88,11.88,0,0,0,1.79-.13A12.17,12.17,0,0,1,54.77,13.42Z"/><path class="cls-1" d="M109.44,1.24a11.88,11.88,0,0,0-1.79.13,12.17,12.17,0,0,1,0,24.08,12.17,12.17,0,1,0,3.57-24.08A11.85,11.85,0,0,0,109.44,1.24Z"/><path class="cls-1" d="M97.27,13.42a12.18,12.18,0,0,1,10.38-12,13.2,13.2,0,0,0-1.78-.13,12.17,12.17,0,0,0-.28,24.34h.28a11.75,11.75,0,0,0,1.78-.13A12.17,12.17,0,0,1,97.27,13.42Z"/><rect class="cls-1" x="82.67" y="1.25" width="4.27" height="24.23"/><path class="cls-1" d="M90.82,13.36A13.46,13.46,0,0,1,100.28.51h-.47a12.87,12.87,0,0,0,0,25.73h.47A13.46,13.46,0,0,1,90.82,13.36Z"/><rect class="cls-1" x="128.46" y="7.21" width="4.27" height="18.47"/><rect class="cls-1" x="128.46" y="1.45" width="4.27" height="3.75"/><path class="cls-1" d="M121.65,5.2h3.72a12.88,12.88,0,0,0-10-4.7H115A13.43,13.43,0,0,1,121.65,5.2Z"/><path class="cls-1" d="M126.72,7.21h-3.79a13.47,13.47,0,0,1-5.84,18.13,12.5,12.5,0,0,1-2.14.88h.47a12.86,12.86,0,0,0,11.3-19Z"/></svg>