<svg id="レイヤー_2" data-name="レイヤー 2" xmlns="http://www.w3.org/2000/svg" viewBox="0 0 805.85 157.61"><defs><style>.cls-1{fill:#c1272d;stroke:#c1272d;}.cls-1,.cls-2{stroke-miterlimit:10;}.cls-2{fill:#fff;stroke:#fff;}</style></defs><path class="cls-1" d="M96.88,5.27A74.73,74.73,0,0,0,86,6.06a74.09,74.09,0,0,1,0,146.57A74.08,74.08,0,1,0,96.88,5.27Z"/><path class="cls-2" d="M22.8,79.35A74.1,74.1,0,0,1,86,6.06a75,75,0,0,0-10.87-.79,74.08,74.08,0,0,0,0,148.16,75,75,0,0,0,10.87-.8A74.08,74.08,0,0,1,22.8,79.35Z"/><rect class="cls-2" x="171.87" y="13.15" width="24.18" height="132.4"/><rect class="cls-1" x="285.52" y="13.15" width="24.18" height="132.4"/><path class="cls-2" d="M196,13.15H171.81A207.83,207.83,0,0,0,285.52,145,207.48,207.48,0,0,1,196,13.15Z"/><path class="cls-1" d="M405.46,5.27a74.83,74.83,0,0,0-10.86.79,74.09,74.09,0,0,1,0,146.57,74.83,74.83,0,0,0,10.86.8,74.08,74.08,0,1,0,0-148.16Z"/><path class="cls-2" d="M331.38,79.35A74.11,74.11,0,0,1,394.6,6.06a74.83,74.83,0,0,0-10.86-.79,74.08,74.08,0,1,0,0,148.16,74.83,74.83,0,0,0,10.86-.8A74.09,74.09,0,0,1,331.38,79.35Z"/><path class="cls-1" d="M664.14,5.22a75,75,0,0,0-10.87.8,74.09,74.09,0,0,1,0,146.57,75,75,0,0,0,10.87.79,74.08,74.08,0,0,0,0-148.16Z"/><path class="cls-2" d="M590.06,79.3A74.08,74.08,0,0,1,653.27,6a74.08,74.08,0,1,0-10.86,147.36,74.73,74.73,0,0,0,10.86-.79A74.1,74.1,0,0,1,590.06,79.3Z"/><rect class="cls-2" x="501.23" y="5.24" width="26" height="147.51"/><path class="cls-1" d="M550.8,79A82,82,0,0,1,608.39.75c-.95,0-1.9-.05-2.86-.05a78.3,78.3,0,1,0,0,156.6c1,0,1.91,0,2.86-.05A82,82,0,0,1,550.8,79Z"/><rect class="cls-1" x="779.93" y="41.52" width="26" height="112.45"/><rect class="cls-1" x="779.93" y="6.45" width="26" height="22.85"/><path class="cls-1" d="M738.48,29.3h22.6A78.14,78.14,0,0,0,700.58.7c-1,0-1.92,0-2.87.05A82.07,82.07,0,0,1,738.48,29.3Z"/><path class="cls-1" d="M769.34,41.52h-23.1a82,82,0,0,1-48.53,115.73c.95,0,1.91.05,2.87.05A78.32,78.32,0,0,0,769.34,41.52Z"/></svg>